<svg xmlns="http://www.w3.org/2000/svg" width="422" height="395" viewBox="0 0 422 395" fill="none">
  <g opacity="0.3">
    <circle cx="377.912" cy="278.356" r="2.68832" transform="rotate(-45 377.912 278.356)" fill="#284BFF"/>
    <path d="M378.863 277.405L419.733 236.535" stroke="url(#paint0_linear)"/>
    <circle cx="278.01" cy="390.832" r="2.68832" transform="rotate(-45 278.01 390.832)" fill="#284BFF"/>
    <path d="M278.961 389.882L319.831 349.012" stroke="url(#paint1_linear)"/>
    <circle cx="57.5685" cy="123.344" r="2.68832" transform="rotate(-45 57.5685 123.344)" fill="#284BFF"/>
    <path d="M58.5186 122.394L99.3886 81.5236" stroke="url(#paint2_linear)"/>
    <circle cx="352.676" cy="153.524" r="1.82804" transform="rotate(-45 352.676 153.524)" fill="#284BFF"/>
    <path d="M353.322 152.878L381.114 125.086" stroke="url(#paint3_linear)"/>
    <circle cx="220.339" cy="228.983" r="1.82804" transform="rotate(-45 220.339 228.983)" fill="#284BFF"/>
    <path d="M220.986 228.336L248.777 200.545" stroke="url(#paint4_linear)"/>
    <circle cx="2.58523" cy="257.21" r="1.82804" transform="rotate(-45 2.58523 257.21)" fill="#284BFF"/>
    <path d="M3.23145 256.564L31.0227 228.772" stroke="url(#paint5_linear)"/>
    <circle cx="112.806" cy="316.354" r="1.82804" transform="rotate(-45 112.806 316.354)" fill="#284BFF"/>
    <path d="M113.453 315.707L141.244 287.916" stroke="url(#paint6_linear)"/>
    <circle cx="184.047" cy="78.4375" r="1.82804" transform="rotate(-45 184.047 78.4375)" fill="#284BFF"/>
    <path d="M184.694 77.7913L212.485 50" stroke="url(#paint7_linear)"/>
    <circle cx="335.937" cy="30.0476" r="1.82804" transform="rotate(-45 335.937 30.0476)" fill="#284BFF"/>
    <path d="M336.584 29.4014L364.375 1.6101" stroke="url(#paint8_linear)"/>
  </g>
  <defs>
  <linearGradient id="paint0_linear" x1="372.685" y1="283.583" x2="410.194" y2="246.982" gradientUnits="userSpaceOnUse">
    <stop stop-color="#284BFF"/>
    <stop offset="1" stop-color="#284BFF" stop-opacity="0"/>
  </linearGradient>
  <linearGradient id="paint1_linear" x1="272.783" y1="396.06" x2="310.292" y2="359.459" gradientUnits="userSpaceOnUse">
    <stop stop-color="#284BFF"/>
    <stop offset="1" stop-color="#284BFF" stop-opacity="0"/>
  </linearGradient>
  <linearGradient id="paint2_linear" x1="52.3405" y1="128.572" x2="89.8498" y2="91.9707" gradientUnits="userSpaceOnUse">
    <stop stop-color="#284BFF"/>
    <stop offset="1" stop-color="#284BFF" stop-opacity="0"/>
  </linearGradient>
  <linearGradient id="paint3_linear" x1="349.121" y1="157.079" x2="374.53" y2="132.09" gradientUnits="userSpaceOnUse">
    <stop stop-color="#284BFF"/>
    <stop offset="1" stop-color="#284BFF" stop-opacity="0"/>
  </linearGradient>
  <linearGradient id="paint4_linear" x1="216.785" y1="232.537" x2="242.194" y2="207.548" gradientUnits="userSpaceOnUse">
    <stop stop-color="#284BFF"/>
    <stop offset="1" stop-color="#284BFF" stop-opacity="0"/>
  </linearGradient>
  <linearGradient id="paint5_linear" x1="-0.96956" y1="260.765" x2="24.4397" y2="235.776" gradientUnits="userSpaceOnUse">
    <stop stop-color="#284BFF"/>
    <stop offset="1" stop-color="#284BFF" stop-opacity="0"/>
  </linearGradient>
  <linearGradient id="paint6_linear" x1="109.252" y1="319.908" x2="134.661" y2="294.919" gradientUnits="userSpaceOnUse">
    <stop stop-color="#284BFF"/>
    <stop offset="1" stop-color="#284BFF" stop-opacity="0"/>
  </linearGradient>
  <linearGradient id="paint7_linear" x1="180.493" y1="81.9923" x2="205.902" y2="57.0031" gradientUnits="userSpaceOnUse">
    <stop stop-color="#284BFF"/>
    <stop offset="1" stop-color="#284BFF" stop-opacity="0"/>
  </linearGradient>
  <linearGradient id="paint8_linear" x1="332.383" y1="33.6024" x2="357.792" y2="8.61322" gradientUnits="userSpaceOnUse">
    <stop stop-color="#284BFF"/>
    <stop offset="1" stop-color="#284BFF" stop-opacity="0"/>
  </linearGradient>
  </defs>
</svg>