<svg xmlns="http://www.w3.org/2000/svg" width="422" height="341" viewBox="0 0 422 341" fill="none">
  <g opacity="0.3">
    <circle cx="378.256" cy="224.039" r="2.68832" transform="rotate(-45 378.256 224.039)" fill="#284BFF"/>
    <path d="M379.208 223.088L420.078 182.218" stroke="url(#paint0_linear)"/>
    <circle cx="278.355" cy="336.515" r="2.68832" transform="rotate(-45 278.355 336.515)" fill="#284BFF"/>
    <path d="M279.306 335.565L320.176 294.695" stroke="url(#paint1_linear)"/>
    <circle cx="57.9132" cy="69.0269" r="2.68832" transform="rotate(-45 57.9132 69.0269)" fill="#284BFF"/>
    <path d="M58.8633 68.0764L99.7333 27.2064" stroke="url(#paint2_linear)"/>
    <circle cx="353.02" cy="99.207" r="1.82804" transform="rotate(-45 353.02 99.207)" fill="#284BFF"/>
    <path d="M353.667 98.5605L381.458 70.7693" stroke="url(#paint3_linear)"/>
    <circle cx="220.684" cy="174.666" r="1.82804" transform="rotate(-45 220.684 174.666)" fill="#284BFF"/>
    <path d="M221.331 174.019L249.122 146.228" stroke="url(#paint4_linear)"/>
    <circle cx="2.92996" cy="202.893" r="1.82804" transform="rotate(-45 2.92996 202.893)" fill="#284BFF"/>
    <path d="M3.57617 202.247L31.3674 174.455" stroke="url(#paint5_linear)"/>
    <circle cx="113.151" cy="262.037" r="1.82804" transform="rotate(-45 113.151 262.037)" fill="#284BFF"/>
    <path d="M113.797 261.39L141.589 233.599" stroke="url(#paint6_linear)"/>
    <circle cx="184.392" cy="24.1204" r="1.82804" transform="rotate(-45 184.392 24.1204)" fill="#284BFF"/>
    <path d="M185.039 23.4741L212.83 -4.31714" stroke="url(#paint7_linear)"/>
  </g>
  <defs>
    <linearGradient id="paint0_linear" x1="373.029" y1="229.266" x2="410.539" y2="192.665" gradientUnits="userSpaceOnUse">
      <stop stop-color="#284BFF"/>
      <stop offset="1" stop-color="#284BFF" stop-opacity="0"/>
    </linearGradient>
    <linearGradient id="paint1_linear" x1="273.128" y1="341.743" x2="310.637" y2="305.142" gradientUnits="userSpaceOnUse">
      <stop stop-color="#284BFF"/>
      <stop offset="1" stop-color="#284BFF" stop-opacity="0"/>
    </linearGradient>
    <linearGradient id="paint2_linear" x1="52.6853" y1="74.2544" x2="90.1946" y2="37.6536" gradientUnits="userSpaceOnUse">
      <stop stop-color="#284BFF"/>
      <stop offset="1" stop-color="#284BFF" stop-opacity="0"/>
    </linearGradient>
    <linearGradient id="paint3_linear" x1="349.466" y1="102.762" x2="374.875" y2="77.7724" gradientUnits="userSpaceOnUse">
      <stop stop-color="#284BFF"/>
      <stop offset="1" stop-color="#284BFF" stop-opacity="0"/>
    </linearGradient>
    <linearGradient id="paint4_linear" x1="217.13" y1="178.22" x2="242.539" y2="153.231" gradientUnits="userSpaceOnUse">
      <stop stop-color="#284BFF"/>
      <stop offset="1" stop-color="#284BFF" stop-opacity="0"/>
    </linearGradient>
    <linearGradient id="paint5_linear" x1="-0.624833" y1="206.448" x2="24.7844" y2="181.458" gradientUnits="userSpaceOnUse">
      <stop stop-color="#284BFF"/>
      <stop offset="1" stop-color="#284BFF" stop-opacity="0"/>
    </linearGradient>
    <linearGradient id="paint6_linear" x1="109.596" y1="265.591" x2="135.006" y2="240.602" gradientUnits="userSpaceOnUse">
      <stop stop-color="#284BFF"/>
      <stop offset="1" stop-color="#284BFF" stop-opacity="0"/>
    </linearGradient>
    <linearGradient id="paint7_linear" x1="180.838" y1="27.6751" x2="206.247" y2="2.68598" gradientUnits="userSpaceOnUse">
      <stop stop-color="#284BFF"/>
      <stop offset="1" stop-color="#284BFF" stop-opacity="0"/>
    </linearGradient>
  </defs>
</svg>