<svg width="195" height="39" viewBox="0 0 195 39" fill="none" xmlns="http://www.w3.org/2000/svg">
<path fill-rule="evenodd" clip-rule="evenodd" d="M105.827 0.958984C104.998 0.958984 104.327 1.63056 104.327 2.45898V2.71919C104.327 3.54762 104.998 4.21919 105.827 4.21919H106.087C106.915 4.21919 107.587 3.54762 107.587 2.71919V2.45898C107.587 1.63056 106.915 0.958984 106.087 0.958984H105.827ZM1.5 0.95919C0.671573 0.95919 0 1.63076 0 2.45919V2.7194C0 3.54783 0.671573 4.2194 1.5 4.2194H1.76021C2.58864 4.2194 3.26021 3.54783 3.26021 2.7194V2.45919C3.26021 1.63076 2.58864 0.95919 1.76021 0.95919H1.5ZM34.7757 2.45898C34.7757 1.63056 35.4472 0.958984 36.2757 0.958984H36.5359C37.3643 0.958984 38.0359 1.63056 38.0359 2.45898V2.71919C38.0359 3.54762 37.3643 4.21919 36.5359 4.21919H36.2757C35.4472 4.21919 34.7757 3.54762 34.7757 2.71919V2.45898ZM140.602 0.958984C139.774 0.958984 139.102 1.63056 139.102 2.45898V2.71919C139.102 3.54762 139.774 4.21919 140.602 4.21919H140.862C141.691 4.21919 142.362 3.54762 142.362 2.71919V2.45898C142.362 1.63056 141.691 0.958984 140.862 0.958984H140.602ZM69.5513 2.45898C69.5513 1.63056 70.2229 0.958984 71.0513 0.958984H71.3115C72.14 0.958984 72.8115 1.63056 72.8115 2.45898V2.71919C72.8115 3.54762 72.14 4.21919 71.3115 4.21919H71.0513C70.2229 4.21919 69.5513 3.54762 69.5513 2.71919V2.45898ZM175.378 0.958984C174.549 0.958984 173.878 1.63056 173.878 2.45898V2.71919C173.878 3.54762 174.549 4.21919 175.378 4.21919H175.638C176.467 4.21919 177.138 3.54762 177.138 2.71919V2.45898C177.138 1.63056 176.467 0.958984 175.638 0.958984H175.378ZM17.3876 2.45898C17.3876 1.63056 18.0592 0.958984 18.8876 0.958984H19.1478C19.9763 0.958984 20.6478 1.63056 20.6478 2.45898V2.71919C20.6478 3.54762 19.9763 4.21919 19.1478 4.21919H18.8876C18.0592 4.21919 17.3876 3.54762 17.3876 2.71919V2.45898ZM123.215 0.958984C122.386 0.958984 121.715 1.63056 121.715 2.45898V2.71919C121.715 3.54762 122.386 4.21919 123.215 4.21919H123.475C124.303 4.21919 124.975 3.54762 124.975 2.71919V2.45898C124.975 1.63056 124.303 0.958984 123.475 0.958984H123.215ZM52.1633 2.45898C52.1633 1.63056 52.8349 0.958984 53.6633 0.958984H53.9235C54.7519 0.958984 55.4235 1.63056 55.4235 2.45898V2.71919C55.4235 3.54762 54.7519 4.21919 53.9235 4.21919H53.6633C52.8349 4.21919 52.1633 3.54762 52.1633 2.71919V2.45898ZM157.99 0.958984C157.162 0.958984 156.49 1.63056 156.49 2.45898V2.71919C156.49 3.54762 157.162 4.21919 157.99 4.21919H158.25C159.079 4.21919 159.75 3.54762 159.75 2.71919V2.45898C159.75 1.63056 159.079 0.958984 158.25 0.958984H157.99ZM86.9389 2.45898C86.9389 1.63056 87.6105 0.958984 88.4389 0.958984H88.6991C89.5276 0.958984 90.1991 1.63056 90.1991 2.45898V2.71919C90.1991 3.54762 89.5276 4.21919 88.6991 4.21919H88.4389C87.6105 4.21919 86.9389 3.54762 86.9389 2.71919V2.45898ZM192.765 0.958984C191.937 0.958984 191.265 1.63056 191.265 2.45898V2.71919C191.265 3.54762 191.937 4.21919 192.765 4.21919H193.026C193.854 4.21919 194.526 3.54762 194.526 2.71919V2.45898C194.526 1.63056 193.854 0.958984 193.026 0.958984H192.765ZM0 37.2344C0 36.406 0.671573 35.7344 1.5 35.7344H1.76021C2.58864 35.7344 3.26021 36.406 3.26021 37.2344V37.4946C3.26021 38.3231 2.58864 38.9946 1.76021 38.9946H1.5C0.671573 38.9946 0 38.3231 0 37.4946V37.2344ZM105.827 35.7344C104.998 35.7344 104.327 36.406 104.327 37.2344V37.4946C104.327 38.3231 104.998 38.9946 105.827 38.9946H106.087C106.915 38.9946 107.587 38.3231 107.587 37.4946V37.2344C107.587 36.406 106.915 35.7344 106.087 35.7344H105.827ZM34.7757 37.2344C34.7757 36.406 35.4472 35.7344 36.2757 35.7344H36.5359C37.3643 35.7344 38.0359 36.406 38.0359 37.2344V37.4946C38.0359 38.3231 37.3643 38.9946 36.5359 38.9946H36.2757C35.4472 38.9946 34.7757 38.3231 34.7757 37.4946V37.2344ZM140.602 35.7344C139.774 35.7344 139.102 36.406 139.102 37.2344V37.4946C139.102 38.3231 139.774 38.9946 140.602 38.9946H140.862C141.691 38.9946 142.362 38.3231 142.362 37.4946V37.2344C142.362 36.406 141.691 35.7344 140.862 35.7344H140.602ZM69.5513 37.2344C69.5513 36.406 70.2229 35.7344 71.0513 35.7344H71.3115C72.14 35.7344 72.8115 36.406 72.8115 37.2344V37.4946C72.8115 38.3231 72.14 38.9946 71.3115 38.9946H71.0513C70.2229 38.9946 69.5513 38.3231 69.5513 37.4946V37.2344ZM175.378 35.7344C174.549 35.7344 173.878 36.406 173.878 37.2344V37.4946C173.878 38.3231 174.549 38.9946 175.378 38.9946H175.638C176.467 38.9946 177.138 38.3231 177.138 37.4946V37.2344C177.138 36.406 176.467 35.7344 175.638 35.7344H175.378ZM17.3876 37.2344C17.3876 36.406 18.0592 35.7344 18.8876 35.7344H19.1478C19.9763 35.7344 20.6478 36.406 20.6478 37.2344V37.4946C20.6478 38.3231 19.9763 38.9946 19.1478 38.9946H18.8876C18.0592 38.9946 17.3876 38.3231 17.3876 37.4946V37.2344ZM123.215 35.7344C122.386 35.7344 121.715 36.406 121.715 37.2344V37.4946C121.715 38.3231 122.386 38.9946 123.215 38.9946H123.475C124.303 38.9946 124.975 38.3231 124.975 37.4946V37.2344C124.975 36.406 124.303 35.7344 123.475 35.7344H123.215ZM52.1633 37.2344C52.1633 36.406 52.8349 35.7344 53.6633 35.7344H53.9235C54.7519 35.7344 55.4235 36.406 55.4235 37.2344V37.4946C55.4235 38.3231 54.7519 38.9946 53.9235 38.9946H53.6633C52.8349 38.9946 52.1633 38.3231 52.1633 37.4946V37.2344ZM157.99 35.7344C157.162 35.7344 156.49 36.406 156.49 37.2344V37.4946C156.49 38.3231 157.162 38.9946 157.99 38.9946H158.25C159.079 38.9946 159.75 38.3231 159.75 37.4946V37.2344C159.75 36.406 159.079 35.7344 158.25 35.7344H157.99ZM86.9389 37.2344C86.9389 36.406 87.6105 35.7344 88.4389 35.7344H88.6991C89.5276 35.7344 90.1991 36.406 90.1991 37.2344V37.4946C90.1991 38.3231 89.5276 38.9946 88.6991 38.9946H88.4389C87.6105 38.9946 86.9389 38.3231 86.9389 37.4946V37.2344ZM192.765 35.7344C191.937 35.7344 191.265 36.406 191.265 37.2344V37.4946C191.265 38.3231 191.937 38.9946 192.765 38.9946H193.026C193.854 38.9946 194.526 38.3231 194.526 37.4946V37.2344C194.526 36.406 193.854 35.7344 193.026 35.7344H192.765ZM0 19.847C0 19.0186 0.671573 18.347 1.5 18.347H1.76021C2.58864 18.347 3.26021 19.0186 3.26021 19.847V20.1072C3.26021 20.9357 2.58864 21.6072 1.76021 21.6072H1.5C0.671573 21.6072 0 20.9357 0 20.1072V19.847ZM105.827 18.347C104.998 18.347 104.327 19.0186 104.327 19.847V20.1072C104.327 20.9357 104.998 21.6072 105.827 21.6072H106.087C106.915 21.6072 107.587 20.9357 107.587 20.1072V19.847C107.587 19.0186 106.915 18.347 106.087 18.347H105.827ZM34.7757 19.847C34.7757 19.0186 35.4472 18.347 36.2757 18.347H36.5359C37.3643 18.347 38.0359 19.0186 38.0359 19.847V20.1072C38.0359 20.9357 37.3643 21.6072 36.5359 21.6072H36.2757C35.4472 21.6072 34.7757 20.9357 34.7757 20.1072V19.847ZM140.602 18.347C139.774 18.347 139.102 19.0186 139.102 19.847V20.1072C139.102 20.9357 139.774 21.6072 140.602 21.6072H140.862C141.691 21.6072 142.362 20.9357 142.362 20.1072V19.847C142.362 19.0186 141.691 18.347 140.862 18.347H140.602ZM69.5513 19.847C69.5513 19.0186 70.2229 18.347 71.0513 18.347H71.3115C72.14 18.347 72.8115 19.0186 72.8115 19.847V20.1072C72.8115 20.9357 72.14 21.6072 71.3115 21.6072H71.0513C70.2229 21.6072 69.5513 20.9357 69.5513 20.1072V19.847ZM175.378 18.347C174.549 18.347 173.878 19.0186 173.878 19.847V20.1072C173.878 20.9357 174.549 21.6072 175.378 21.6072H175.638C176.467 21.6072 177.138 20.9357 177.138 20.1072V19.847C177.138 19.0186 176.467 18.347 175.638 18.347H175.378ZM17.3876 19.847C17.3876 19.0186 18.0592 18.347 18.8876 18.347H19.1478C19.9763 18.347 20.6478 19.0186 20.6478 19.847V20.1072C20.6478 20.9357 19.9763 21.6072 19.1478 21.6072H18.8876C18.0592 21.6072 17.3876 20.9357 17.3876 20.1072V19.847ZM123.215 18.347C122.386 18.347 121.715 19.0186 121.715 19.847V20.1072C121.715 20.9357 122.386 21.6072 123.215 21.6072H123.475C124.303 21.6072 124.975 20.9357 124.975 20.1072V19.847C124.975 19.0186 124.303 18.347 123.475 18.347H123.215ZM52.1633 19.847C52.1633 19.0186 52.8349 18.347 53.6633 18.347H53.9235C54.7519 18.347 55.4235 19.0186 55.4235 19.847V20.1072C55.4235 20.9357 54.7519 21.6072 53.9235 21.6072H53.6633C52.8349 21.6072 52.1633 20.9357 52.1633 20.1072V19.847ZM157.99 18.347C157.162 18.347 156.49 19.0186 156.49 19.847V20.1072C156.49 20.9357 157.162 21.6072 157.99 21.6072H158.25C159.079 21.6072 159.75 20.9357 159.75 20.1072V19.847C159.75 19.0186 159.079 18.347 158.25 18.347H157.99ZM86.9389 19.847C86.9389 19.0186 87.6105 18.347 88.4389 18.347H88.6991C89.5276 18.347 90.1991 19.0186 90.1991 19.847V20.1072C90.1991 20.9357 89.5276 21.6072 88.6991 21.6072H88.4389C87.6105 21.6072 86.9389 20.9357 86.9389 20.1072V19.847ZM192.765 18.347C191.937 18.347 191.265 19.0186 191.265 19.847V20.1072C191.265 20.9357 191.937 21.6072 192.765 21.6072H193.026C193.854 21.6072 194.526 20.9357 194.526 20.1072V19.847C194.526 19.0186 193.854 18.347 193.026 18.347H192.765Z" fill="url(#paint0_linear)"/>
<defs>
<linearGradient id="paint0_linear" x1="35.0191" y1="38.9316" x2="53.4768" y2="-64.9247" gradientUnits="userSpaceOnUse">
<stop stop-color="#FB28FF" stop-opacity="0"/>
<stop offset="1" stop-color="#284BFF"/>
</linearGradient>
</defs>
</svg>
