<svg width="195" height="39" viewBox="0 0 195 39" fill="none" xmlns="http://www.w3.org/2000/svg">
<path fill-rule="evenodd" clip-rule="evenodd" d="M88.6988 0.958984C89.5273 0.958984 90.1988 1.63056 90.1988 2.45898V2.71919C90.1988 3.54762 89.5273 4.21919 88.6988 4.21919H88.4386C87.6102 4.21919 86.9386 3.54762 86.9386 2.71919V2.45898C86.9386 1.63056 87.6102 0.958984 88.4386 0.958984H88.6988ZM193.025 0.95919C193.854 0.95919 194.525 1.63076 194.525 2.45919V2.7194C194.525 3.54783 193.854 4.2194 193.025 4.2194H192.765C191.937 4.2194 191.265 3.54783 191.265 2.7194V2.45919C191.265 1.63076 191.937 0.95919 192.765 0.95919H193.025ZM159.75 2.45898C159.75 1.63056 159.078 0.958984 158.25 0.958984H157.99C157.161 0.958984 156.49 1.63056 156.49 2.45898V2.71919C156.49 3.54762 157.161 4.21919 157.99 4.21919H158.25C159.078 4.21919 159.75 3.54762 159.75 2.71919V2.45898ZM53.9232 0.958984C54.7516 0.958984 55.4232 1.63056 55.4232 2.45898V2.71919C55.4232 3.54762 54.7516 4.21919 53.9232 4.21919H53.663C52.8345 4.21919 52.163 3.54762 52.163 2.71919V2.45898C52.163 1.63056 52.8345 0.958984 53.663 0.958984H53.9232ZM124.974 2.45898C124.974 1.63056 124.303 0.958984 123.474 0.958984H123.214C122.385 0.958984 121.714 1.63056 121.714 2.45898V2.71919C121.714 3.54762 122.385 4.21919 123.214 4.21919H123.474C124.303 4.21919 124.974 3.54762 124.974 2.71919V2.45898ZM19.1475 0.958984C19.976 0.958984 20.6475 1.63056 20.6475 2.45898V2.71919C20.6475 3.54762 19.976 4.21919 19.1475 4.21919H18.8873C18.0589 4.21919 17.3873 3.54762 17.3873 2.71919V2.45898C17.3873 1.63056 18.0589 0.958984 18.8873 0.958984H19.1475ZM177.138 2.45898C177.138 1.63056 176.466 0.958984 175.638 0.958984H175.378C174.549 0.958984 173.878 1.63056 173.878 2.45898V2.71919C173.878 3.54762 174.549 4.21919 175.378 4.21919H175.638C176.466 4.21919 177.138 3.54762 177.138 2.71919V2.45898ZM71.3108 0.958984C72.1392 0.958984 72.8108 1.63056 72.8108 2.45898V2.71919C72.8108 3.54762 72.1392 4.21919 71.3108 4.21919H71.0506C70.2222 4.21919 69.5506 3.54762 69.5506 2.71919V2.45898C69.5506 1.63056 70.2222 0.958984 71.0506 0.958984H71.3108ZM142.362 2.45898C142.362 1.63056 141.691 0.958984 140.862 0.958984H140.602C139.773 0.958984 139.102 1.63056 139.102 2.45898V2.71919C139.102 3.54762 139.773 4.21919 140.602 4.21919H140.862C141.691 4.21919 142.362 3.54762 142.362 2.71919V2.45898ZM36.5351 0.958984C37.3636 0.958984 38.0351 1.63056 38.0351 2.45898V2.71919C38.0351 3.54762 37.3636 4.21919 36.5351 4.21919H36.2749C35.4465 4.21919 34.7749 3.54762 34.7749 2.71919V2.45898C34.7749 1.63056 35.4465 0.958984 36.2749 0.958984H36.5351ZM107.586 2.45898C107.586 1.63056 106.915 0.958984 106.086 0.958984H105.826C104.998 0.958984 104.326 1.63056 104.326 2.45898V2.71919C104.326 3.54762 104.998 4.21919 105.826 4.21919H106.086C106.915 4.21919 107.586 3.54762 107.586 2.71919V2.45898ZM1.7599 0.958984C2.58833 0.958984 3.2599 1.63056 3.2599 2.45898V2.71919C3.2599 3.54762 2.58833 4.21919 1.7599 4.21919H1.49969C0.671265 4.21919 -0.000305176 3.54762 -0.000305176 2.71919V2.45898C-0.000305176 1.63056 0.671265 0.958984 1.49969 0.958984H1.7599ZM194.525 37.2344C194.525 36.406 193.854 35.7344 193.025 35.7344H192.765C191.937 35.7344 191.265 36.406 191.265 37.2344V37.4946C191.265 38.3231 191.937 38.9946 192.765 38.9946H193.025C193.854 38.9946 194.525 38.3231 194.525 37.4946V37.2344ZM88.6988 35.7344C89.5273 35.7344 90.1988 36.406 90.1988 37.2344V37.4946C90.1988 38.3231 89.5273 38.9946 88.6988 38.9946H88.4386C87.6102 38.9946 86.9386 38.3231 86.9386 37.4946V37.2344C86.9386 36.406 87.6102 35.7344 88.4386 35.7344H88.6988ZM159.75 37.2344C159.75 36.406 159.078 35.7344 158.25 35.7344H157.99C157.161 35.7344 156.49 36.406 156.49 37.2344V37.4946C156.49 38.3231 157.161 38.9946 157.99 38.9946H158.25C159.078 38.9946 159.75 38.3231 159.75 37.4946V37.2344ZM53.9232 35.7344C54.7516 35.7344 55.4232 36.406 55.4232 37.2344V37.4946C55.4232 38.3231 54.7516 38.9946 53.9232 38.9946H53.663C52.8345 38.9946 52.163 38.3231 52.163 37.4946V37.2344C52.163 36.406 52.8345 35.7344 53.663 35.7344H53.9232ZM124.974 37.2344C124.974 36.406 124.303 35.7344 123.474 35.7344H123.214C122.385 35.7344 121.714 36.406 121.714 37.2344V37.4946C121.714 38.3231 122.385 38.9946 123.214 38.9946H123.474C124.303 38.9946 124.974 38.3231 124.974 37.4946V37.2344ZM19.1475 35.7344C19.976 35.7344 20.6475 36.406 20.6475 37.2344V37.4946C20.6475 38.3231 19.976 38.9946 19.1475 38.9946H18.8873C18.0589 38.9946 17.3873 38.3231 17.3873 37.4946V37.2344C17.3873 36.406 18.0589 35.7344 18.8873 35.7344H19.1475ZM177.138 37.2344C177.138 36.406 176.466 35.7344 175.638 35.7344H175.378C174.549 35.7344 173.878 36.406 173.878 37.2344V37.4946C173.878 38.3231 174.549 38.9946 175.378 38.9946H175.638C176.466 38.9946 177.138 38.3231 177.138 37.4946V37.2344ZM71.3108 35.7344C72.1392 35.7344 72.8108 36.406 72.8108 37.2344V37.4946C72.8108 38.3231 72.1392 38.9946 71.3108 38.9946H71.0506C70.2222 38.9946 69.5506 38.3231 69.5506 37.4946V37.2344C69.5506 36.406 70.2222 35.7344 71.0506 35.7344H71.3108ZM142.362 37.2344C142.362 36.406 141.691 35.7344 140.862 35.7344H140.602C139.773 35.7344 139.102 36.406 139.102 37.2344V37.4946C139.102 38.3231 139.773 38.9946 140.602 38.9946H140.862C141.691 38.9946 142.362 38.3231 142.362 37.4946V37.2344ZM36.5351 35.7344C37.3636 35.7344 38.0351 36.406 38.0351 37.2344V37.4946C38.0351 38.3231 37.3636 38.9946 36.5351 38.9946H36.2749C35.4465 38.9946 34.7749 38.3231 34.7749 37.4946V37.2344C34.7749 36.406 35.4465 35.7344 36.2749 35.7344H36.5351ZM107.586 37.2344C107.586 36.406 106.915 35.7344 106.086 35.7344H105.826C104.998 35.7344 104.326 36.406 104.326 37.2344V37.4946C104.326 38.3231 104.998 38.9946 105.826 38.9946H106.086C106.915 38.9946 107.586 38.3231 107.586 37.4946V37.2344ZM1.7599 35.7344C2.58833 35.7344 3.2599 36.406 3.2599 37.2344V37.4946C3.2599 38.3231 2.58833 38.9946 1.7599 38.9946H1.49969C0.671265 38.9946 -0.000305176 38.3231 -0.000305176 37.4946V37.2344C-0.000305176 36.406 0.671265 35.7344 1.49969 35.7344H1.7599ZM194.525 19.847C194.525 19.0186 193.854 18.347 193.025 18.347H192.765C191.937 18.347 191.265 19.0186 191.265 19.847V20.1072C191.265 20.9357 191.937 21.6072 192.765 21.6072H193.025C193.854 21.6072 194.525 20.9357 194.525 20.1072V19.847ZM88.6988 18.347C89.5273 18.347 90.1988 19.0186 90.1988 19.847V20.1072C90.1988 20.9357 89.5273 21.6072 88.6988 21.6072H88.4386C87.6102 21.6072 86.9386 20.9357 86.9386 20.1072V19.847C86.9386 19.0186 87.6102 18.347 88.4386 18.347H88.6988ZM159.75 19.847C159.75 19.0186 159.078 18.347 158.25 18.347H157.99C157.161 18.347 156.49 19.0186 156.49 19.847V20.1072C156.49 20.9357 157.161 21.6072 157.99 21.6072H158.25C159.078 21.6072 159.75 20.9357 159.75 20.1072V19.847ZM53.9232 18.347C54.7516 18.347 55.4232 19.0186 55.4232 19.847V20.1072C55.4232 20.9357 54.7516 21.6072 53.9232 21.6072H53.663C52.8345 21.6072 52.163 20.9357 52.163 20.1072V19.847C52.163 19.0186 52.8345 18.347 53.663 18.347H53.9232ZM124.974 19.847C124.974 19.0186 124.303 18.347 123.474 18.347H123.214C122.385 18.347 121.714 19.0186 121.714 19.847V20.1072C121.714 20.9357 122.385 21.6072 123.214 21.6072H123.474C124.303 21.6072 124.974 20.9357 124.974 20.1072V19.847ZM19.1475 18.347C19.976 18.347 20.6475 19.0186 20.6475 19.847V20.1072C20.6475 20.9357 19.976 21.6072 19.1475 21.6072H18.8873C18.0589 21.6072 17.3873 20.9357 17.3873 20.1072V19.847C17.3873 19.0186 18.0589 18.347 18.8873 18.347H19.1475ZM177.138 19.847C177.138 19.0186 176.466 18.347 175.638 18.347H175.378C174.549 18.347 173.878 19.0186 173.878 19.847V20.1072C173.878 20.9357 174.549 21.6072 175.378 21.6072H175.638C176.466 21.6072 177.138 20.9357 177.138 20.1072V19.847ZM71.3108 18.347C72.1392 18.347 72.8108 19.0186 72.8108 19.847V20.1072C72.8108 20.9357 72.1392 21.6072 71.3108 21.6072H71.0506C70.2222 21.6072 69.5506 20.9357 69.5506 20.1072V19.847C69.5506 19.0186 70.2222 18.347 71.0506 18.347H71.3108ZM142.362 19.847C142.362 19.0186 141.691 18.347 140.862 18.347H140.602C139.773 18.347 139.102 19.0186 139.102 19.847V20.1072C139.102 20.9357 139.773 21.6072 140.602 21.6072H140.862C141.691 21.6072 142.362 20.9357 142.362 20.1072V19.847ZM36.5351 18.347C37.3636 18.347 38.0351 19.0186 38.0351 19.847V20.1072C38.0351 20.9357 37.3636 21.6072 36.5351 21.6072H36.2749C35.4465 21.6072 34.7749 20.9357 34.7749 20.1072V19.847C34.7749 19.0186 35.4465 18.347 36.2749 18.347H36.5351ZM107.586 19.847C107.586 19.0186 106.915 18.347 106.086 18.347H105.826C104.998 18.347 104.326 19.0186 104.326 19.847V20.1072C104.326 20.9357 104.998 21.6072 105.826 21.6072H106.086C106.915 21.6072 107.586 20.9357 107.586 20.1072V19.847ZM1.7599 18.347C2.58833 18.347 3.2599 19.0186 3.2599 19.847V20.1072C3.2599 20.9357 2.58833 21.6072 1.7599 21.6072H1.49969C0.671265 21.6072 -0.000305176 20.9357 -0.000305176 20.1072V19.847C-0.000305176 19.0186 0.671265 18.347 1.49969 18.347H1.7599Z" fill="url(#paint0_linear)"/>
<defs>
<linearGradient id="paint0_linear" x1="159.506" y1="38.9316" x2="141.049" y2="-64.9247" gradientUnits="userSpaceOnUse">
<stop stop-color="#FB28FF" stop-opacity="0"/>
<stop offset="1" stop-color="#284BFF"/>
</linearGradient>
</defs>
</svg>
